<?xml version="1.0" encoding="UTF-8"?>
<!DOCTYPE svg PUBLIC "-//W3C//DTD SVG 1.1//EN" "http://www.w3.org/Graphics/SVG/1.1/DTD/svg11.dtd">
<!-- Creator: CorelDRAW X7 -->
<svg xmlns="http://www.w3.org/2000/svg" xml:space="preserve" width="6.6798in" height="1.05209in" version="1.1" style="shape-rendering:geometricPrecision; text-rendering:geometricPrecision; image-rendering:optimizeQuality; fill-rule:evenodd; clip-rule:evenodd"
viewBox="0 0 6680 1052"
 xmlns:xlink="http://www.w3.org/1999/xlink">
 <defs>
  <style type="text/css">
   <![CDATA[
    .fil3 {fill:#FEFEFE}
    .fil5 {fill:#144AB6}
    .fil6 {fill:#144AB6}
    .fil2 {fill:#4AD0DB}
    .fil7 {fill:#FEDD02}
    .fil4 {fill:#FF0069}
    .fil0 {fill:#144AB6;fill-rule:nonzero}
    .fil1 {fill:#FEDD02;fill-rule:nonzero}
   ]]>
  </style>
 </defs>
 <g id="图层_x0020_1">
  <metadata id="CorelCorpID_0Corel-Layer"/>
  <path class="fil0" d="M1716 97c144,0 200,158 0,158 -90,0 -172,36 -231,96 -60,59 -96,141 -96,231 0,91 36,172 96,232 59,59 141,96 231,96 201,0 144,157 0,157 -134,0 -255,-54 -343,-142 -87,-88 -142,-209 -142,-343 0,-134 55,-255 142,-343 88,-88 209,-142 343,-142z"/>
  <path class="fil1" d="M1716 97c144,0 201,158 0,158 -91,0 -173,36 -232,96 -63,63 -97,148 -96,236l-157 0 0 -5c0,-134 54,-255 142,-343 88,-87 209,-142 343,-142z"/>
  <path class="fil0" d="M2529 100c134,0 255,54 343,142 88,88 142,209 142,343 0,134 -54,255 -142,343 -88,88 -209,142 -343,142 -134,0 -255,-54 -343,-142 -88,-88 -142,-209 -142,-343 0,-134 54,-255 142,-343 88,-88 209,-142 343,-142zm232 253c-60,-59 -142,-96 -232,-96 -91,0 -172,37 -232,96 -59,60 -96,142 -96,232 0,90 37,172 96,232 60,59 141,95 232,95 90,0 172,-36 232,-95 59,-60 95,-142 95,-232 0,-90 -36,-172 -95,-232z"/>
  <path class="fil2" d="M2856 585c0,91 -36,172 -96,232 -59,59 -141,96 -231,96 -91,0 -173,-37 -232,-96 -59,-60 -96,-141 -96,-232 0,-4 0,-8 0,-12 0,0 0,0 0,0 0,-3 1,-6 1,-9 1,-18 -158,-37 -158,21 0,134 54,255 142,343 87,88 209,142 343,142 134,0 255,-54 343,-142 88,-88 142,-209 142,-343 0,-59 -158,-50 -158,0z"/>
  <ellipse class="fil3" cx="1769" cy="176" rx="27" ry="31"/>
  <ellipse class="fil3" cx="1305" cy="540" rx="27" ry="31"/>
  <ellipse class="fil3" cx="1772" cy="988" rx="27" ry="31"/>
  <ellipse class="fil3" cx="2128" cy="603" rx="27" ry="31"/>
  <ellipse class="fil3" cx="2938" cy="606" rx="27" ry="31"/>
  <rect class="fil4" x="3821" y="883" width="765" height="167" rx="106" ry="106"/>
  <rect class="fil5" x="3815" y="50" width="187" height="1000" rx="122" ry="122"/>
  <ellipse class="fil3" cx="3898" cy="954" rx="27" ry="31"/>
  <rect class="fil6" transform="matrix(1 -0 -0.31982 0.939535 5146.93 22.2677)" width="177" height="1120" rx="177" ry="177"/>
  <rect class="fil6" transform="matrix(1 -0 0.351354 0.939535 5129.73 22.2677)" width="177" height="1120" rx="177" ry="177"/>
  <rect class="fil2" x="4951" y="567" width="565" height="130" rx="100" ry="83"/>
  <ellipse class="fil3" cx="5017" cy="634" rx="27" ry="31"/>
  <ellipse class="fil3" cx="5433" cy="637" rx="27" ry="31"/>
  <ellipse class="fil3" cx="5232" cy="116" rx="27" ry="31"/>
  <rect class="fil7" x="5940" y="60" width="187" height="987" rx="122" ry="120"/>
  <rect class="fil5" x="5941" y="56" width="620" height="170" rx="110" ry="122"/>
  <path class="fil0" d="M6027 52l449 0c24,0 47,10 63,26 16,17 26,39 26,63 0,25 -10,47 -26,63 -16,17 -39,27 -63,27l-449 0c-25,0 -47,-10 -63,-27 -16,-16 -27,-38 -27,-63 0,-24 11,-46 27,-63 16,-16 38,-26 63,-26zm449 8l-449 0c-23,0 -43,9 -58,24 -14,15 -24,35 -24,57 0,23 10,43 24,58 15,15 35,24 58,24l449 0c22,0 42,-9 57,-24 15,-15 24,-35 24,-58 0,-22 -9,-42 -24,-57 -15,-15 -35,-24 -57,-24z"/>
  <rect class="fil5" x="5940" y="477" width="642" height="170" rx="114" ry="122"/>
  <path class="fil0" d="M6025 473l472 0c24,0 46,10 63,26 16,16 26,38 26,63 0,25 -10,47 -26,63 -17,16 -39,26 -63,26l-472 0c-24,0 -46,-10 -63,-26 -16,-16 -26,-38 -26,-63 0,-25 10,-47 26,-63 17,-16 39,-26 63,-26zm472 8l-472 0c-22,0 -42,9 -57,24 -15,14 -24,35 -24,57 0,22 9,43 24,57 15,15 35,24 57,24l472 0c22,0 42,-9 57,-24 15,-14 24,-35 24,-57 0,-22 -9,-43 -24,-57 -15,-15 -35,-24 -57,-24z"/>
  <rect class="fil5" x="5940" y="873" width="629" height="170" rx="112" ry="122"/>
  <path class="fil0" d="M6025 869l459 0c24,0 46,10 63,26 16,16 26,38 26,63 0,24 -10,47 -26,63 -17,16 -39,26 -63,26l-459 0c-24,0 -47,-10 -63,-26 -16,-16 -26,-39 -26,-63 0,-25 10,-47 26,-63 16,-16 39,-26 63,-26zm459 8l-459 0c-22,0 -43,9 -57,23 -15,15 -24,36 -24,58 0,22 9,43 24,57 14,15 35,24 57,24l459 0c22,0 42,-9 57,-24 15,-14 24,-35 24,-57 0,-23 -9,-43 -24,-58 -15,-14 -35,-23 -57,-23z"/>
  <path class="fil0" d="M6543 82c10,10 19,20 28,30 70,78 103,158 99,240 -3,82 -41,161 -115,235 -9,10 -20,20 -32,31l-104 -118c8,-7 16,-15 24,-23 46,-46 69,-89 71,-130 1,-41 -19,-84 -60,-131 -6,-7 -13,-14 -21,-22l110 -112z"/>
  <path class="fil0" d="M6541 503c20,19 39,38 54,56 58,70 85,141 82,215 -2,73 -34,143 -96,210 -18,19 -39,39 -61,57l-101 -121c18,-14 33,-29 46,-43 36,-38 54,-75 56,-109 1,-33 -15,-69 -47,-108 -11,-14 -25,-28 -40,-42l107 -115z"/>
  <ellipse class="fil3" cx="6043" cy="146" rx="27" ry="31"/>
  <ellipse class="fil3" cx="6034" cy="560" rx="27" ry="31"/>
  <ellipse class="fil3" cx="6022" cy="956" rx="27" ry="31"/>
  <ellipse class="fil3" cx="6480" cy="569" rx="27" ry="31"/>
  <g id="_1552559231232">
   <path class="fil0" d="M483 96c134,0 255,54 343,142 88,88 142,209 142,343 0,134 -54,255 -142,343 -88,87 -209,142 -343,142 -134,0 -255,-55 -343,-142 -88,-88 -142,-209 -142,-343 0,-134 54,-255 142,-343 88,-88 209,-142 343,-142zm232 253c-60,-59 -141,-96 -232,-96 -90,0 -172,37 -231,96 -60,59 -96,141 -96,232 0,90 36,172 96,231 59,60 141,96 231,96 91,0 172,-36 232,-96 59,-59 96,-141 96,-231 0,-91 -37,-173 -96,-232z"/>
   <path class="fil2" d="M811 581c0,90 -37,172 -96,232 -60,59 -142,95 -232,95 -91,0 -172,-36 -232,-95 -59,-60 -96,-142 -96,-232 0,-4 0,-8 1,-12 0,0 0,0 0,0 0,-4 0,-7 0,-10 1,-17 -158,-37 -158,22 0,134 54,255 142,343 88,88 209,142 343,142 134,0 255,-54 343,-142 88,-88 142,-209 142,-343 0,-59 -157,-50 -157,0z"/>
   <ellipse class="fil3" cx="82" cy="599" rx="27" ry="31"/>
   <ellipse class="fil3" cx="892" cy="601" rx="27" ry="31"/>
  </g>
 </g>
</svg>
