<?xml version="1.0" encoding="UTF-8"?>
<!DOCTYPE svg PUBLIC "-//W3C//DTD SVG 1.1//EN" "http://www.w3.org/Graphics/SVG/1.1/DTD/svg11.dtd">
<!-- Creator: CorelDRAW X7 -->
<svg xmlns="http://www.w3.org/2000/svg" xml:space="preserve" width="7.69343in" height="0.832717in" version="1.1" style="shape-rendering:geometricPrecision; text-rendering:geometricPrecision; image-rendering:optimizeQuality; fill-rule:evenodd; clip-rule:evenodd"
viewBox="0 0 7693 833"
 xmlns:xlink="http://www.w3.org/1999/xlink">
 <defs>
  <style type="text/css">
   <![CDATA[
    .str0 {stroke:#FEDD02;stroke-width:3}
    .fil2 {fill:#FEFEFE}
    .fil3 {fill:#144AB6}
    .fil4 {fill:#4AD0DB}
    .fil5 {fill:#FEDD02}
    .fil6 {fill:#FF0069}
    .fil0 {fill:#144AB6;fill-rule:nonzero}
    .fil1 {fill:#FEDD02;fill-rule:nonzero}
   ]]>
  </style>
 </defs>
 <g id="图层_x0020_1">
  <metadata id="CorelCorpID_0Corel-Layer"/>
  <path class="fil0" d="M1299 71c110,0 153,121 0,121 -69,0 -132,28 -177,73 -45,45 -73,108 -73,177 0,69 28,132 73,177 45,45 108,73 177,73 153,0 110,120 0,120 -103,0 -195,-41 -262,-108 -67,-67 -109,-160 -109,-262 0,-102 42,-195 109,-262 67,-67 159,-109 262,-109z"/>
  <path class="fil1" d="M1300 72c110,0 153,120 0,120 -70,0 -132,28 -177,73 -48,48 -75,113 -74,181l-120 0 0 -4c0,-102 42,-195 109,-262 67,-67 159,-108 262,-108z"/>
  <ellipse class="fil2" cx="1339" cy="132" rx="21" ry="24"/>
  <ellipse class="fil2" cx="985" cy="410" rx="21" ry="24"/>
  <ellipse class="fil2" cx="1341" cy="752" rx="21" ry="24"/>
  <rect class="fil3" transform="matrix(0.736221 -0.362711 0.362711 0.736221 2626.42 84.4315)" width="188" height="1000" rx="122" ry="122"/>
  <rect class="fil3" transform="matrix(0.763996 -0 -0.244341 0.717801 3919.75 14.2126)" width="177" height="1120" rx="177" ry="177"/>
  <rect class="fil3" transform="matrix(0.763996 -0 0.268433 0.717801 3906.61 14.2126)" width="177" height="1120" rx="177" ry="177"/>
  <rect class="fil4" x="3770" y="430" width="431.652" height="99.4789" rx="76" ry="63"/>
  <ellipse class="fil2" cx="3820" cy="482" rx="21" ry="24"/>
  <ellipse class="fil2" cx="4139" cy="484" rx="21" ry="24"/>
  <ellipse class="fil2" cx="3984" cy="86" rx="21" ry="24"/>
  <rect class="fil5" x="4526" y="43" width="143" height="764" rx="93" ry="93"/>
  <rect class="fil3" x="4527" y="40" width="473" height="130" rx="84" ry="93"/>
  <path class="fil0" d="M4592 37l343 0c19,0 36,8 48,20 12,12 20,29 20,48 0,19 -8,36 -20,48 -12,13 -29,20 -48,20l-343 0c-19,0 -36,-7 -48,-20 -13,-12 -20,-29 -20,-48 0,-19 7,-36 20,-48 12,-12 29,-20 48,-20zm343 6l-343 0c-17,0 -33,7 -44,18 -11,12 -18,27 -18,44 0,17 7,33 18,44 11,11 27,18 44,18l343 0c17,0 33,-7 44,-18 11,-11 18,-27 18,-44 0,-17 -7,-32 -18,-44 -11,-11 -27,-18 -44,-18z"/>
  <rect class="fil3" x="4526" y="361" width="490" height="130" rx="87" ry="93"/>
  <path class="fil0" d="M4591 358l360 0c19,0 36,8 48,20 12,13 20,30 20,49 0,18 -8,35 -20,48 -12,12 -29,20 -48,20l-360 0c-19,0 -36,-8 -48,-20 -13,-13 -20,-30 -20,-48 0,-19 7,-36 20,-49 12,-12 29,-20 48,-20zm360 6l-360 0c-17,0 -33,7 -44,19 -11,11 -18,27 -18,44 0,17 7,32 18,43 11,12 27,19 44,19l360 0c17,0 32,-7 44,-19 11,-11 18,-26 18,-43 0,-17 -7,-33 -18,-44 -12,-12 -27,-19 -44,-19z"/>
  <rect class="fil3" transform="matrix(0.280313 0.640218 -0.699853 0.306424 4952.19 332.816)" width="688" height="170" rx="122" ry="122"/>
  <path class="fil0" d="M4986 60c8,7 15,15 22,23 53,59 78,121 76,183 -3,63 -32,123 -88,180 -8,7 -16,15 -25,23l-79 -90c6,-5 12,-11 18,-17 35,-35 53,-69 54,-100 1,-31 -14,-64 -46,-100 -4,-5 -10,-10 -16,-16l84 -86z"/>
  <ellipse class="fil2" cx="4604" cy="109" rx="21" ry="24"/>
  <ellipse class="fil2" cx="4597" cy="425" rx="21" ry="24"/>
  <ellipse class="fil2" cx="4588" cy="727" rx="21" ry="24"/>
  <ellipse class="fil2" cx="4938" cy="432" rx="21" ry="24"/>
  <rect class="fil3" x="5334" y="35" width="143" height="764" rx="93" ry="93"/>
  <rect class="fil6" transform="matrix(0.610481 -0.459351 0.459351 0.610481 5335.92 386.537)" width="771" height="167" rx="106" ry="106"/>
  <rect class="fil4" transform="matrix(0.639368 0.553983 -0.553983 0.639368 5414.05 291.989)" width="771" height="167" rx="106" ry="106"/>
  <ellipse class="fil2" cx="5426" cy="402" rx="21" ry="24"/>
  <rect class="fil4" x="6141" y="677" width="589" height="127" rx="81" ry="81"/>
  <rect class="fil3" x="6141" y="40" width="143" height="764" rx="93" ry="93"/>
  <ellipse class="fil2" cx="6205" cy="731" rx="21" ry="24"/>
  <rect class="fil4" x="6160" y="361" width="589" height="127" rx="81" ry="81"/>
  <rect class="fil3" x="6144" y="32" width="589" height="127" rx="81" ry="81"/>
  <rect class="fil3" x="7319" y="83" width="143" height="764" rx="93" ry="93"/>
  <rect class="fil5 str0" x="3239" y="36" width="143" height="762" rx="93" ry="93"/>
  <rect class="fil3" transform="matrix(0.743518 0.350609 -0.350609 0.743518 3276.87 6.71976)" width="188" height="1000" rx="122" ry="122"/>
  <rect class="fil4" x="2642" y="35" width="143" height="764" rx="93" ry="93"/>
  <ellipse class="fil2" cx="3120" cy="134" rx="21" ry="24"/>
  <ellipse class="fil2" cx="3319" cy="106" rx="21" ry="24"/>
  <ellipse class="fil2" cx="2710" cy="114" rx="21" ry="24"/>
  <ellipse class="fil2" cx="3032" cy="683" rx="21" ry="24"/>
  <rect class="fil5" x="7099" y="27" width="589" height="127" rx="81" ry="81"/>
  <ellipse class="fil2" cx="6213" cy="422" rx="21" ry="24"/>
  <ellipse class="fil2" cx="7381" cy="90" rx="21" ry="24"/>
  <g id="_1552557345440">
   <path class="fil0" d="M359 72c101,0 192,41 258,107 67,66 107,157 107,258 0,101 -40,192 -107,258 -66,66 -157,107 -258,107 -100,0 -192,-41 -258,-107 -66,-66 -106,-157 -106,-258 0,-101 40,-192 106,-258 66,-66 158,-107 258,-107zm175 191c-45,-45 -106,-72 -175,-72 -68,0 -129,27 -174,72 -44,44 -72,106 -72,174 0,68 28,130 72,174 45,45 106,72 174,72 69,0 130,-27 175,-72 44,-44 72,-106 72,-174 0,-68 -28,-130 -72,-174z"/>
   <path class="fil4" d="M606 437c0,68 -28,130 -72,174 -45,45 -107,72 -175,72 -68,0 -129,-27 -174,-72 -45,-44 -72,-106 -72,-174 0,-3 0,-6 0,-9 0,0 0,0 0,0 0,-3 0,-5 0,-7 1,-13 -119,-28 -119,16 0,101 41,192 107,258 66,66 158,107 258,107 101,0 192,-41 258,-107 66,-66 107,-157 107,-258 0,-44 -118,-38 -118,0z"/>
   <ellipse class="fil2" cx="58" cy="451" rx="21" ry="24"/>
   <ellipse class="fil2" cx="667" cy="453" rx="21" ry="24"/>
  </g>
  <g id="_1552557343680">
   <path class="fil0" d="M1920 76c101,0 192,41 258,107 66,66 107,157 107,258 0,101 -41,192 -107,258 -66,66 -157,107 -258,107 -101,0 -192,-41 -258,-107 -66,-66 -107,-157 -107,-258 0,-101 41,-192 107,-258 66,-66 157,-107 258,-107zm174 191c-44,-45 -106,-72 -174,-72 -68,0 -130,27 -174,72 -45,45 -73,106 -73,174 0,68 28,130 73,174 44,45 106,73 174,73 68,0 130,-28 174,-73 45,-44 72,-106 72,-174 0,-68 -27,-129 -72,-174z"/>
   <path class="fil4" d="M2166 441c0,68 -27,130 -72,174 -45,45 -106,73 -174,73 -68,0 -130,-28 -175,-73 -44,-44 -72,-106 -72,-174 0,-3 0,-6 0,-9 0,0 0,0 0,0 1,-2 1,-5 1,-7 1,-13 -119,-28 -119,16 0,101 41,192 107,258 66,66 157,107 258,107 101,0 192,-41 258,-107 66,-66 107,-157 107,-258 0,-44 -119,-38 -119,0z"/>
   <ellipse class="fil2" cx="1618" cy="455" rx="21" ry="24"/>
   <ellipse class="fil2" cx="2227" cy="457" rx="21" ry="24"/>
  </g>
 </g>
</svg>
